<svg id="Capa_1" enable-background="new 0 0 512 512" height="512" viewBox="0 0 512 512" width="512" xmlns="http://www.w3.org/2000/svg"><g><path d="m177.113 52.121-6.156-18.469c-1.416-4.249-5.393-7.116-9.872-7.116h-89.064c-4.479 0-8.456 2.866-9.872 7.116l-6.156 18.469c-1.122 3.365-4.271 5.635-7.819 5.635h-21.117c-5.747 0-10.407 4.659-10.407 10.407v31.22h478.7v-31.22c0-5.747-4.659-10.407-10.406-10.407h-300.012c-3.547 0-6.697-2.27-7.819-5.635z" fill="#eab14d"/><path d="m16.65 78.569h478.699v20.813h-478.699z" fill="#e7a52e"/><path d="m501.594 421.984h-491.187c-5.748 0-10.407-4.659-10.407-10.407v-301.788c0-5.747 4.659-10.407 10.407-10.407h491.187c5.747 0 10.406 4.659 10.406 10.407v301.789c0 5.747-4.659 10.406-10.406 10.406z" fill="#f6e781"/><path d="m501.594 99.382h-30.179c5.747 0 10.406 4.659 10.406 10.407v301.789c0 5.747-4.659 10.406-10.406 10.406h30.179c5.747 0 10.406-4.659 10.406-10.406v-301.789c0-5.748-4.659-10.407-10.406-10.407z" fill="#f4dd45"/><g><path d="m382.654 393.126-29.582 29.582c-4.023 4.023-10.546 4.023-14.569 0l-19.206-19.206 44.151-44.151 19.206 19.206c4.023 4.023 4.023 10.546 0 14.569z" fill="#2b4d66"/><path d="m362.377 402.43h37.463v37.463h-37.463z" fill="#4a80aa" transform="matrix(.707 -.707 .707 .707 -186.183 392.84)"/><path d="m477.125 485.463h-69.893c-3.825 0-7.493-1.52-10.198-4.224l-18.2-18.2c-3.621-3.621-3.621-9.491 0-13.112l31.039-31.039c3.621-3.621 9.491-3.621 13.112 0l57.782 57.782c3.245 3.245.947 8.793-3.642 8.793z" fill="#95d6a4"/><path d="m409.873 418.888-8.161 8.161 58.414 58.414h16.999c4.589 0 6.887-5.548 3.642-8.793l-57.782-57.782c-3.62-3.621-9.491-3.621-13.112 0z" fill="#78c2a4"/><circle cx="256.014" cy="296.068" fill="#95d6a4" r="124.878"/><path d="m331.533 196.614c15.95 20.973 25.424 47.138 25.424 75.519 0 68.968-55.91 124.878-124.878 124.878-28.381 0-54.546-9.474-75.519-25.424 22.809 29.992 58.867 49.359 99.454 49.359 68.968 0 124.878-55.91 124.878-124.878 0-40.587-19.368-76.646-49.359-99.454z" fill="#78c2a4"/><circle cx="256.014" cy="296.068" fill="#e4f6ff" r="91.577"/><path d="m311.316 223.074c11.66 15.367 18.584 34.525 18.584 55.302 0 50.577-41.001 91.577-91.577 91.577-20.778 0-39.935-6.924-55.302-18.584 16.723 22.039 43.194 36.275 72.993 36.275 50.577 0 91.577-41.001 91.577-91.577 0-29.799-14.236-56.269-36.275-72.993z" fill="#d3effb"/></g></g></svg>